G75*
G70*
%OFA0B0*%
%FSLAX24Y24*%
%IPPOS*%
%LPD*%
%AMOC8*
5,1,8,0,0,1.08239X$1,22.5*
%
%ADD10C,0.0591*%
%ADD11C,0.0160*%
%ADD12R,0.0376X0.0376*%
D10*
X001080Y000780D03*
X001080Y001780D03*
X002080Y001780D03*
X002080Y000780D03*
X001780Y004680D03*
X001780Y005680D03*
X002780Y005680D03*
X002780Y004680D03*
X000780Y004680D03*
X000780Y005680D03*
D11*
X000460Y004384D02*
X000460Y000460D01*
X000784Y000460D01*
X000711Y000533D01*
X000645Y000693D01*
X000645Y000867D01*
X000711Y001027D01*
X000833Y001149D01*
X000993Y001215D01*
X001167Y001215D01*
X001327Y001149D01*
X001449Y001027D01*
X001515Y000867D01*
X001515Y000693D01*
X001449Y000533D01*
X001376Y000460D01*
X001784Y000460D01*
X001711Y000533D01*
X001645Y000693D01*
X001645Y000867D01*
X001711Y001027D01*
X001833Y001149D01*
X001993Y001215D01*
X002167Y001215D01*
X002327Y001149D01*
X002449Y001027D01*
X002515Y000867D01*
X002515Y000693D01*
X002449Y000533D01*
X002376Y000460D01*
X003100Y000460D01*
X003100Y004384D01*
X003027Y004311D01*
X002867Y004245D01*
X002693Y004245D01*
X002533Y004311D01*
X002411Y004433D01*
X002345Y004593D01*
X002345Y004767D01*
X002411Y004927D01*
X002533Y005049D01*
X002693Y005115D01*
X002867Y005115D01*
X003027Y005049D01*
X003100Y004976D01*
X003100Y005328D01*
X003090Y005317D01*
X003029Y005274D01*
X002962Y005240D01*
X002891Y005216D01*
X002817Y005205D01*
X002798Y005205D01*
X002798Y005662D01*
X002762Y005662D01*
X002762Y005205D01*
X002743Y005205D01*
X002669Y005216D01*
X002598Y005240D01*
X002531Y005274D01*
X002470Y005317D01*
X002417Y005370D01*
X002374Y005431D01*
X002340Y005498D01*
X002316Y005569D01*
X002305Y005643D01*
X002305Y005662D01*
X002762Y005662D01*
X002762Y005698D01*
X002305Y005698D01*
X002305Y005717D01*
X002316Y005791D01*
X002340Y005862D01*
X002374Y005929D01*
X002385Y005945D01*
X002172Y005948D01*
X002186Y005929D01*
X002220Y005862D01*
X002244Y005791D01*
X002255Y005717D01*
X002255Y005698D01*
X001798Y005698D01*
X001798Y005662D01*
X002255Y005662D01*
X002255Y005643D01*
X002244Y005569D01*
X002220Y005498D01*
X002186Y005431D01*
X002143Y005370D01*
X002090Y005317D01*
X002029Y005274D01*
X001962Y005240D01*
X001891Y005216D01*
X001817Y005205D01*
X001798Y005205D01*
X001798Y005662D01*
X001762Y005662D01*
X001305Y005662D01*
X001305Y005643D01*
X001316Y005569D01*
X001340Y005498D01*
X001374Y005431D01*
X001417Y005370D01*
X001470Y005317D01*
X001531Y005274D01*
X001598Y005240D01*
X001669Y005216D01*
X001743Y005205D01*
X001762Y005205D01*
X001762Y005662D01*
X001762Y005698D01*
X001305Y005698D01*
X001305Y005717D01*
X001316Y005791D01*
X001340Y005862D01*
X001374Y005929D01*
X001396Y005961D01*
X001161Y005964D01*
X001186Y005929D01*
X001220Y005862D01*
X001244Y005791D01*
X001255Y005717D01*
X001255Y005698D01*
X000798Y005698D01*
X000798Y005662D01*
X001255Y005662D01*
X001255Y005643D01*
X001244Y005569D01*
X001220Y005498D01*
X001186Y005431D01*
X001143Y005370D01*
X001090Y005317D01*
X001029Y005274D01*
X000962Y005240D01*
X000891Y005216D01*
X000817Y005205D01*
X000798Y005205D01*
X000798Y005662D01*
X000762Y005662D01*
X000762Y005205D01*
X000743Y005205D01*
X000669Y005216D01*
X000598Y005240D01*
X000531Y005274D01*
X000470Y005317D01*
X000460Y005328D01*
X000460Y004976D01*
X000533Y005049D01*
X000693Y005115D01*
X000867Y005115D01*
X001027Y005049D01*
X001149Y004927D01*
X001215Y004767D01*
X001215Y004593D01*
X001149Y004433D01*
X001027Y004311D01*
X000867Y004245D01*
X000693Y004245D01*
X000533Y004311D01*
X000460Y004384D01*
X000460Y004351D02*
X000493Y004351D01*
X000460Y004193D02*
X003100Y004193D01*
X003100Y004034D02*
X000460Y004034D01*
X000460Y003876D02*
X003100Y003876D01*
X003100Y003717D02*
X000460Y003717D01*
X000460Y003559D02*
X003100Y003559D01*
X003100Y003400D02*
X000460Y003400D01*
X000460Y003242D02*
X003100Y003242D01*
X003100Y003083D02*
X000460Y003083D01*
X000460Y002925D02*
X003100Y002925D01*
X003100Y002766D02*
X000460Y002766D01*
X000460Y002608D02*
X003100Y002608D01*
X003100Y002449D02*
X000460Y002449D01*
X000460Y002291D02*
X003100Y002291D01*
X003100Y002132D02*
X002344Y002132D01*
X002327Y002149D02*
X002167Y002215D01*
X001993Y002215D01*
X001833Y002149D01*
X001711Y002027D01*
X001645Y001867D01*
X001645Y001693D01*
X001711Y001533D01*
X001833Y001411D01*
X001993Y001345D01*
X002167Y001345D01*
X002327Y001411D01*
X002449Y001533D01*
X002515Y001693D01*
X002515Y001867D01*
X002449Y002027D01*
X002327Y002149D01*
X002471Y001974D02*
X003100Y001974D01*
X003100Y001815D02*
X002515Y001815D01*
X002500Y001657D02*
X003100Y001657D01*
X003100Y001498D02*
X002414Y001498D01*
X002249Y001181D02*
X003100Y001181D01*
X003100Y001023D02*
X002451Y001023D01*
X002515Y000864D02*
X003100Y000864D01*
X003100Y000706D02*
X002515Y000706D01*
X002455Y000547D02*
X003100Y000547D01*
X003100Y001340D02*
X001262Y001340D01*
X001329Y001374D01*
X001390Y001417D01*
X001443Y001470D01*
X001486Y001531D01*
X001520Y001598D01*
X001544Y001669D01*
X001555Y001743D01*
X001555Y001762D01*
X001098Y001762D01*
X001098Y001798D01*
X001062Y001798D01*
X001062Y001762D01*
X000605Y001762D01*
X000605Y001743D01*
X000616Y001669D01*
X000640Y001598D01*
X000674Y001531D01*
X000717Y001470D01*
X000770Y001417D01*
X000831Y001374D01*
X000898Y001340D01*
X000460Y001340D01*
X000460Y001181D02*
X000911Y001181D01*
X000969Y001316D02*
X000898Y001340D01*
X000969Y001316D02*
X001043Y001305D01*
X001062Y001305D01*
X001062Y001762D01*
X001098Y001762D01*
X001098Y001305D01*
X001117Y001305D01*
X001191Y001316D01*
X001262Y001340D01*
X001249Y001181D02*
X001911Y001181D01*
X001709Y001023D02*
X001451Y001023D01*
X001515Y000864D02*
X001645Y000864D01*
X001645Y000706D02*
X001515Y000706D01*
X001455Y000547D02*
X001705Y000547D01*
X001746Y001498D02*
X001463Y001498D01*
X001540Y001657D02*
X001660Y001657D01*
X001645Y001815D02*
X001555Y001815D01*
X001555Y001817D02*
X001544Y001891D01*
X001520Y001962D01*
X001486Y002029D01*
X001443Y002090D01*
X001390Y002143D01*
X001329Y002186D01*
X001262Y002220D01*
X001191Y002244D01*
X001117Y002255D01*
X001098Y002255D01*
X001098Y001798D01*
X001555Y001798D01*
X001555Y001817D01*
X001515Y001974D02*
X001689Y001974D01*
X001816Y002132D02*
X001400Y002132D01*
X001098Y002132D02*
X001062Y002132D01*
X001062Y002255D02*
X001043Y002255D01*
X000969Y002244D01*
X000898Y002220D01*
X000831Y002186D01*
X000770Y002143D01*
X000717Y002090D01*
X000674Y002029D01*
X000640Y001962D01*
X000616Y001891D01*
X000605Y001817D01*
X000605Y001798D01*
X001062Y001798D01*
X001062Y002255D01*
X001062Y001974D02*
X001098Y001974D01*
X001098Y001815D02*
X001062Y001815D01*
X001062Y001657D02*
X001098Y001657D01*
X001098Y001498D02*
X001062Y001498D01*
X001062Y001340D02*
X001098Y001340D01*
X000697Y001498D02*
X000460Y001498D01*
X000460Y001657D02*
X000620Y001657D01*
X000605Y001815D02*
X000460Y001815D01*
X000460Y001974D02*
X000645Y001974D01*
X000760Y002132D02*
X000460Y002132D01*
X000460Y001023D02*
X000709Y001023D01*
X000645Y000864D02*
X000460Y000864D01*
X000460Y000706D02*
X000645Y000706D01*
X000705Y000547D02*
X000460Y000547D01*
X001693Y004245D02*
X001867Y004245D01*
X002027Y004311D01*
X002149Y004433D01*
X002215Y004593D01*
X002215Y004767D01*
X002149Y004927D01*
X002027Y005049D01*
X001867Y005115D01*
X001693Y005115D01*
X001533Y005049D01*
X001411Y004927D01*
X001345Y004767D01*
X001345Y004593D01*
X001411Y004433D01*
X001533Y004311D01*
X001693Y004245D01*
X001493Y004351D02*
X001067Y004351D01*
X001181Y004510D02*
X001379Y004510D01*
X001345Y004668D02*
X001215Y004668D01*
X001190Y004827D02*
X001370Y004827D01*
X001469Y004985D02*
X001091Y004985D01*
X001068Y005302D02*
X001492Y005302D01*
X001358Y005461D02*
X001202Y005461D01*
X001252Y005619D02*
X001308Y005619D01*
X001314Y005778D02*
X001246Y005778D01*
X001181Y005936D02*
X001379Y005936D01*
X001762Y005619D02*
X001798Y005619D01*
X001798Y005461D02*
X001762Y005461D01*
X001762Y005302D02*
X001798Y005302D01*
X002068Y005302D02*
X002492Y005302D01*
X002358Y005461D02*
X002202Y005461D01*
X002252Y005619D02*
X002308Y005619D01*
X002314Y005778D02*
X002246Y005778D01*
X002181Y005936D02*
X002379Y005936D01*
X002762Y005619D02*
X002798Y005619D01*
X002798Y005461D02*
X002762Y005461D01*
X002762Y005302D02*
X002798Y005302D01*
X003068Y005302D02*
X003100Y005302D01*
X003100Y005144D02*
X000460Y005144D01*
X000460Y005302D02*
X000492Y005302D01*
X000469Y004985D02*
X000460Y004985D01*
X000762Y005302D02*
X000798Y005302D01*
X000798Y005461D02*
X000762Y005461D01*
X000762Y005619D02*
X000798Y005619D01*
X002091Y004985D02*
X002469Y004985D01*
X002370Y004827D02*
X002190Y004827D01*
X002215Y004668D02*
X002345Y004668D01*
X002379Y004510D02*
X002181Y004510D01*
X002067Y004351D02*
X002493Y004351D01*
X003067Y004351D02*
X003100Y004351D01*
X003091Y004985D02*
X003100Y004985D01*
D12*
X002280Y003930D03*
X001280Y003930D03*
X002930Y001230D03*
M02*
