G75*
G70*
%OFA0B0*%
%FSLAX24Y24*%
%IPPOS*%
%LPD*%
%AMOC8*
5,1,8,0,0,1.08239X$1,22.5*
%
%ADD10C,0.0591*%
%ADD11R,0.0433X0.0394*%
%ADD12C,0.0120*%
%ADD13R,0.0376X0.0376*%
D10*
X001080Y000780D03*
X001080Y001780D03*
X002080Y001780D03*
X002080Y000780D03*
X001780Y004680D03*
X001780Y005680D03*
X002780Y005680D03*
X002780Y004680D03*
X000780Y004680D03*
X000780Y005680D03*
D11*
X000780Y003315D03*
X000780Y002645D03*
X001780Y002645D03*
X001780Y003315D03*
X002780Y003315D03*
X002780Y002645D03*
D12*
X000680Y000780D02*
X000530Y000930D01*
X000530Y002130D01*
X000780Y002380D01*
X000780Y002645D01*
X000960Y002329D02*
X001046Y002329D01*
X001117Y002399D01*
X001117Y002892D01*
X001046Y002962D01*
X000514Y002962D01*
X000443Y002892D01*
X000443Y002399D01*
X000494Y002348D01*
X000455Y002310D01*
X000440Y002295D01*
X000440Y004433D01*
X000545Y004328D01*
X000600Y004305D01*
X000600Y003631D01*
X000514Y003631D01*
X000443Y003561D01*
X000443Y003068D01*
X000514Y002998D01*
X001046Y002998D01*
X001117Y003068D01*
X001117Y003561D01*
X001046Y003631D01*
X000960Y003631D01*
X000960Y004305D01*
X001015Y004328D01*
X001132Y004445D01*
X001195Y004597D01*
X001195Y004763D01*
X001132Y004915D01*
X001015Y005032D01*
X000863Y005095D01*
X000697Y005095D01*
X000545Y005032D01*
X000440Y004927D01*
X000440Y005376D01*
X000483Y005333D01*
X000541Y005291D01*
X000605Y005258D01*
X000673Y005236D01*
X000742Y005225D01*
X000742Y005642D01*
X000818Y005642D01*
X000818Y005718D01*
X001235Y005718D01*
X001224Y005787D01*
X001202Y005855D01*
X001169Y005919D01*
X001127Y005977D01*
X001084Y006020D01*
X001476Y006020D01*
X001433Y005977D01*
X001391Y005919D01*
X001358Y005855D01*
X001336Y005787D01*
X001325Y005718D01*
X001742Y005718D01*
X001742Y005642D01*
X001818Y005642D01*
X001818Y005718D01*
X002235Y005718D01*
X002224Y005787D01*
X002202Y005855D01*
X002169Y005919D01*
X002127Y005977D01*
X002084Y006020D01*
X002476Y006020D01*
X002433Y005977D01*
X002391Y005919D01*
X002358Y005855D01*
X002336Y005787D01*
X002325Y005718D01*
X002742Y005718D01*
X002742Y005642D01*
X002818Y005642D01*
X002818Y005225D01*
X002887Y005236D01*
X002955Y005258D01*
X003019Y005291D01*
X003077Y005333D01*
X003120Y005376D01*
X003120Y004927D01*
X003015Y005032D01*
X002863Y005095D01*
X002697Y005095D01*
X002545Y005032D01*
X002428Y004915D01*
X002365Y004763D01*
X002365Y004597D01*
X002428Y004445D01*
X002545Y004328D01*
X002600Y004305D01*
X002600Y003631D01*
X002514Y003631D01*
X002443Y003561D01*
X002443Y003068D01*
X002514Y002998D01*
X003046Y002998D01*
X003117Y003068D01*
X003117Y003561D01*
X003046Y003631D01*
X002960Y003631D01*
X002960Y004305D01*
X003015Y004328D01*
X003120Y004433D01*
X003120Y000440D01*
X002327Y000440D01*
X002432Y000545D01*
X002495Y000697D01*
X002495Y000863D01*
X002432Y001015D01*
X002315Y001132D01*
X002163Y001195D01*
X001997Y001195D01*
X001845Y001132D01*
X001760Y001047D01*
X001760Y001513D01*
X001845Y001428D01*
X001997Y001365D01*
X002163Y001365D01*
X002315Y001428D01*
X002432Y001545D01*
X002455Y001600D01*
X002605Y001600D01*
X002710Y001705D01*
X002960Y001955D01*
X002960Y002329D01*
X003046Y002329D01*
X003117Y002399D01*
X003117Y002892D01*
X003046Y002962D01*
X002514Y002962D01*
X002443Y002892D01*
X002443Y002399D01*
X002514Y002329D01*
X002600Y002329D01*
X002600Y002105D01*
X002455Y001960D01*
X002432Y002015D01*
X002315Y002132D01*
X002163Y002195D01*
X001997Y002195D01*
X001930Y002167D01*
X001948Y002181D01*
X001950Y002195D01*
X001960Y002205D01*
X001960Y002267D01*
X001969Y002328D01*
X001969Y002329D01*
X002046Y002329D01*
X002117Y002399D01*
X002117Y002892D01*
X002046Y002962D01*
X001514Y002962D01*
X001443Y002892D01*
X001443Y002399D01*
X001514Y002329D01*
X001545Y002329D01*
X001520Y002310D01*
X001505Y002310D01*
X001462Y002266D01*
X001412Y002229D01*
X001410Y002215D01*
X001400Y002205D01*
X001400Y002143D01*
X001395Y002109D01*
X001377Y002127D01*
X001319Y002169D01*
X001255Y002202D01*
X001187Y002224D01*
X001118Y002235D01*
X001118Y001818D01*
X001042Y001818D01*
X001042Y002235D01*
X000973Y002224D01*
X000905Y002202D01*
X000841Y002169D01*
X000783Y002127D01*
X000733Y002077D01*
X000710Y002045D01*
X000710Y002055D01*
X000855Y002200D01*
X000960Y002305D01*
X000960Y002329D01*
X000899Y002245D02*
X001433Y002245D01*
X001479Y002363D02*
X001081Y002363D01*
X001117Y002482D02*
X001443Y002482D01*
X001443Y002600D02*
X001117Y002600D01*
X001117Y002719D02*
X001443Y002719D01*
X001443Y002837D02*
X001117Y002837D01*
X001053Y002956D02*
X001507Y002956D01*
X001514Y002998D02*
X002046Y002998D01*
X002117Y003068D01*
X002117Y003561D01*
X002046Y003631D01*
X001960Y003631D01*
X001960Y004305D01*
X002015Y004328D01*
X002132Y004445D01*
X002195Y004597D01*
X002195Y004763D01*
X002132Y004915D01*
X002015Y005032D01*
X001863Y005095D01*
X001697Y005095D01*
X001545Y005032D01*
X001428Y004915D01*
X001365Y004763D01*
X001365Y004597D01*
X001428Y004445D01*
X001545Y004328D01*
X001600Y004305D01*
X001600Y003631D01*
X001514Y003631D01*
X001443Y003561D01*
X001443Y003068D01*
X001514Y002998D01*
X001443Y003074D02*
X001117Y003074D01*
X001117Y003193D02*
X001443Y003193D01*
X001443Y003311D02*
X001117Y003311D01*
X001117Y003430D02*
X001443Y003430D01*
X001443Y003548D02*
X001117Y003548D01*
X000960Y003667D02*
X001600Y003667D01*
X001600Y003785D02*
X000960Y003785D01*
X000960Y003904D02*
X001600Y003904D01*
X001600Y004022D02*
X000960Y004022D01*
X000960Y004141D02*
X001600Y004141D01*
X001600Y004259D02*
X000960Y004259D01*
X001065Y004378D02*
X001495Y004378D01*
X001407Y004496D02*
X001153Y004496D01*
X001195Y004615D02*
X001365Y004615D01*
X001365Y004733D02*
X001195Y004733D01*
X001158Y004852D02*
X001402Y004852D01*
X001483Y004970D02*
X001077Y004970D01*
X000955Y005258D02*
X001019Y005291D01*
X001077Y005333D01*
X001127Y005383D01*
X001169Y005441D01*
X001202Y005505D01*
X001224Y005573D01*
X001235Y005642D01*
X000818Y005642D01*
X000818Y005225D01*
X000887Y005236D01*
X000955Y005258D01*
X001067Y005326D02*
X001493Y005326D01*
X001483Y005333D02*
X001541Y005291D01*
X001605Y005258D01*
X001673Y005236D01*
X001742Y005225D01*
X001742Y005642D01*
X001325Y005642D01*
X001336Y005573D01*
X001358Y005505D01*
X001391Y005441D01*
X001433Y005383D01*
X001483Y005333D01*
X001389Y005444D02*
X001171Y005444D01*
X001221Y005563D02*
X001339Y005563D01*
X001340Y005800D02*
X001220Y005800D01*
X001170Y005918D02*
X001390Y005918D01*
X001742Y005681D02*
X000818Y005681D01*
X000818Y005563D02*
X000742Y005563D01*
X000742Y005444D02*
X000818Y005444D01*
X000818Y005326D02*
X000742Y005326D01*
X000681Y005089D02*
X000440Y005089D01*
X000440Y005207D02*
X003120Y005207D01*
X003120Y005089D02*
X002879Y005089D01*
X002742Y005225D02*
X002742Y005642D01*
X002325Y005642D01*
X002336Y005573D01*
X002358Y005505D01*
X002391Y005441D01*
X002433Y005383D01*
X002483Y005333D01*
X002541Y005291D01*
X002605Y005258D01*
X002673Y005236D01*
X002742Y005225D01*
X002742Y005326D02*
X002818Y005326D01*
X002818Y005444D02*
X002742Y005444D01*
X002742Y005563D02*
X002818Y005563D01*
X002742Y005681D02*
X001818Y005681D01*
X001818Y005642D02*
X002235Y005642D01*
X002224Y005573D01*
X002202Y005505D01*
X002169Y005441D01*
X002127Y005383D01*
X002077Y005333D01*
X002019Y005291D01*
X001955Y005258D01*
X001887Y005236D01*
X001818Y005225D01*
X001818Y005642D01*
X001818Y005563D02*
X001742Y005563D01*
X001742Y005444D02*
X001818Y005444D01*
X001818Y005326D02*
X001742Y005326D01*
X001681Y005089D02*
X000879Y005089D01*
X000780Y004680D02*
X000780Y003315D01*
X000600Y003667D02*
X000440Y003667D01*
X000440Y003785D02*
X000600Y003785D01*
X000600Y003904D02*
X000440Y003904D01*
X000440Y004022D02*
X000600Y004022D01*
X000600Y004141D02*
X000440Y004141D01*
X000440Y004259D02*
X000600Y004259D01*
X000495Y004378D02*
X000440Y004378D01*
X000440Y004970D02*
X000483Y004970D01*
X000493Y005326D02*
X000440Y005326D01*
X000440Y003548D02*
X000443Y003548D01*
X000440Y003430D02*
X000443Y003430D01*
X000440Y003311D02*
X000443Y003311D01*
X000440Y003193D02*
X000443Y003193D01*
X000440Y003074D02*
X000443Y003074D01*
X000440Y002956D02*
X000507Y002956D01*
X000443Y002837D02*
X000440Y002837D01*
X000440Y002719D02*
X000443Y002719D01*
X000440Y002600D02*
X000443Y002600D01*
X000440Y002482D02*
X000443Y002482D01*
X000440Y002363D02*
X000479Y002363D01*
X000455Y002310D02*
X000455Y002310D01*
X000781Y002126D02*
X000782Y002126D01*
X000855Y002200D02*
X000855Y002200D01*
X001042Y002126D02*
X001118Y002126D01*
X001118Y002008D02*
X001042Y002008D01*
X001042Y001889D02*
X001118Y001889D01*
X001118Y001742D02*
X001042Y001742D01*
X001042Y001325D01*
X000973Y001336D01*
X000905Y001358D01*
X000841Y001391D01*
X000783Y001433D01*
X000733Y001483D01*
X000710Y001515D01*
X000710Y001005D01*
X000720Y000995D01*
X000728Y001015D01*
X000845Y001132D01*
X000997Y001195D01*
X001163Y001195D01*
X001315Y001132D01*
X001400Y001047D01*
X001400Y001456D01*
X001377Y001433D01*
X001319Y001391D01*
X001255Y001358D01*
X001187Y001336D01*
X001118Y001325D01*
X001118Y001742D01*
X001118Y001652D02*
X001042Y001652D01*
X001042Y001534D02*
X001118Y001534D01*
X001118Y001415D02*
X001042Y001415D01*
X000956Y001178D02*
X000710Y001178D01*
X000710Y001060D02*
X000772Y001060D01*
X000710Y001297D02*
X001400Y001297D01*
X001400Y001415D02*
X001352Y001415D01*
X001400Y001178D02*
X001204Y001178D01*
X001388Y001060D02*
X001400Y001060D01*
X001580Y000830D02*
X001680Y000780D01*
X002080Y000780D01*
X001956Y001178D02*
X001760Y001178D01*
X001760Y001060D02*
X001772Y001060D01*
X001760Y001297D02*
X003120Y001297D01*
X003120Y001415D02*
X002284Y001415D01*
X002421Y001534D02*
X003120Y001534D01*
X003120Y001652D02*
X002657Y001652D01*
X002775Y001771D02*
X003120Y001771D01*
X003120Y001889D02*
X002894Y001889D01*
X002960Y002008D02*
X003120Y002008D01*
X003120Y002126D02*
X002960Y002126D01*
X002960Y002245D02*
X003120Y002245D01*
X003120Y002363D02*
X003081Y002363D01*
X003117Y002482D02*
X003120Y002482D01*
X003117Y002600D02*
X003120Y002600D01*
X003117Y002719D02*
X003120Y002719D01*
X003117Y002837D02*
X003120Y002837D01*
X003120Y002956D02*
X003053Y002956D01*
X003117Y003074D02*
X003120Y003074D01*
X003117Y003193D02*
X003120Y003193D01*
X003117Y003311D02*
X003120Y003311D01*
X003117Y003430D02*
X003120Y003430D01*
X003117Y003548D02*
X003120Y003548D01*
X003120Y003667D02*
X002960Y003667D01*
X002960Y003785D02*
X003120Y003785D01*
X003120Y003904D02*
X002960Y003904D01*
X002960Y004022D02*
X003120Y004022D01*
X003120Y004141D02*
X002960Y004141D01*
X002960Y004259D02*
X003120Y004259D01*
X003120Y004378D02*
X003065Y004378D01*
X002780Y004680D02*
X002780Y003315D01*
X002600Y003667D02*
X001960Y003667D01*
X001960Y003785D02*
X002600Y003785D01*
X002600Y003904D02*
X001960Y003904D01*
X001960Y004022D02*
X002600Y004022D01*
X002600Y004141D02*
X001960Y004141D01*
X001960Y004259D02*
X002600Y004259D01*
X002495Y004378D02*
X002065Y004378D01*
X002153Y004496D02*
X002407Y004496D01*
X002365Y004615D02*
X002195Y004615D01*
X002195Y004733D02*
X002365Y004733D01*
X002402Y004852D02*
X002158Y004852D01*
X002077Y004970D02*
X002483Y004970D01*
X002681Y005089D02*
X001879Y005089D01*
X002067Y005326D02*
X002493Y005326D01*
X002389Y005444D02*
X002171Y005444D01*
X002221Y005563D02*
X002339Y005563D01*
X002340Y005800D02*
X002220Y005800D01*
X002170Y005918D02*
X002390Y005918D01*
X003067Y005326D02*
X003120Y005326D01*
X003120Y004970D02*
X003077Y004970D01*
X002443Y003548D02*
X002117Y003548D01*
X002117Y003430D02*
X002443Y003430D01*
X002443Y003311D02*
X002117Y003311D01*
X002117Y003193D02*
X002443Y003193D01*
X002443Y003074D02*
X002117Y003074D01*
X002053Y002956D02*
X002507Y002956D01*
X002443Y002837D02*
X002117Y002837D01*
X002117Y002719D02*
X002443Y002719D01*
X002443Y002600D02*
X002117Y002600D01*
X002117Y002482D02*
X002443Y002482D01*
X002479Y002363D02*
X002081Y002363D01*
X001960Y002245D02*
X002600Y002245D01*
X002600Y002126D02*
X002321Y002126D01*
X002435Y002008D02*
X002503Y002008D01*
X002455Y001960D02*
X002455Y001960D01*
X002530Y001780D02*
X002080Y001780D01*
X001876Y001415D02*
X001760Y001415D01*
X001580Y000830D02*
X001580Y002130D01*
X001780Y002280D01*
X001780Y002645D01*
X001780Y003315D02*
X001780Y004680D01*
X002780Y002645D02*
X002780Y002030D01*
X002530Y001780D01*
X002204Y001178D02*
X003120Y001178D01*
X003120Y001060D02*
X002388Y001060D01*
X002463Y000941D02*
X003120Y000941D01*
X003120Y000823D02*
X002495Y000823D01*
X002495Y000704D02*
X003120Y000704D01*
X003120Y000586D02*
X002449Y000586D01*
X002354Y000467D02*
X003120Y000467D01*
X001398Y002126D02*
X001378Y002126D01*
X000808Y001415D02*
X000710Y001415D01*
X000680Y000780D02*
X001080Y000780D01*
D13*
X001280Y003930D03*
X002280Y003930D03*
X002930Y001230D03*
M02*
